<svg width="20" height="20" viewBox="0 0 20 20" fill="none" xmlns="http://www.w3.org/2000/svg">
<g clip-path="url(#clip0_26_48396)">
<path d="M9.99999 12.5C11.3807 12.5 12.5 11.3807 12.5 10C12.5 8.61931 11.3807 7.50002 9.99999 7.50002C8.61928 7.50002 7.49999 8.61931 7.49999 10C7.49999 11.3807 8.61928 12.5 9.99999 12.5Z" stroke="#475467" stroke-width="1.66667" stroke-linecap="round" stroke-linejoin="round"/>
<path d="M15.6061 12.2727C15.5052 12.5012 15.4751 12.7547 15.5197 13.0005C15.5642 13.2462 15.6814 13.473 15.8561 13.6515L15.9015 13.697C16.0424 13.8377 16.1541 14.0048 16.2304 14.1887C16.3066 14.3727 16.3459 14.5698 16.3459 14.769C16.3459 14.9681 16.3066 15.1652 16.2304 15.3492C16.1541 15.5331 16.0424 15.7002 15.9015 15.8409C15.7608 15.9818 15.5937 16.0936 15.4097 16.1698C15.2258 16.2461 15.0287 16.2853 14.8295 16.2853C14.6304 16.2853 14.4333 16.2461 14.2493 16.1698C14.0654 16.0936 13.8983 15.9818 13.7576 15.8409L13.7121 15.7955C13.5336 15.6208 13.3068 15.5037 13.061 15.4591C12.8153 15.4145 12.5618 15.4446 12.3333 15.5455C12.1093 15.6415 11.9182 15.801 11.7836 16.0042C11.649 16.2075 11.5767 16.4456 11.5757 16.6894V16.8182C11.5757 17.22 11.4161 17.6054 11.132 17.8896C10.8478 18.1737 10.4624 18.3334 10.0606 18.3334C9.65875 18.3334 9.27337 18.1737 8.98922 17.8896C8.70508 17.6054 8.54544 17.22 8.54544 16.8182V16.75C8.53958 16.4993 8.45841 16.2561 8.3125 16.0521C8.16658 15.8481 7.96267 15.6927 7.72726 15.6061C7.49877 15.5052 7.2453 15.4752 6.99954 15.5197C6.75379 15.5643 6.52702 15.6814 6.34847 15.8561L6.30302 15.9015C6.1623 16.0424 5.9952 16.1542 5.81126 16.2304C5.62733 16.3067 5.43016 16.3459 5.23105 16.3459C5.03194 16.3459 4.83477 16.3067 4.65084 16.2304C4.4669 16.1542 4.2998 16.0424 4.15908 15.9015C4.01821 15.7608 3.90645 15.5937 3.8302 15.4098C3.75395 15.2258 3.71471 15.0287 3.71471 14.8296C3.71471 14.6305 3.75395 14.4333 3.8302 14.2494C3.90645 14.0654 4.01821 13.8983 4.15908 13.7576L4.20454 13.7121C4.37918 13.5336 4.49634 13.3068 4.5409 13.0611C4.58546 12.8153 4.55538 12.5619 4.45454 12.3334C4.3585 12.1093 4.19905 11.9182 3.9958 11.7836C3.79255 11.649 3.55437 11.5768 3.3106 11.5758H3.18181C2.77996 11.5758 2.39458 11.4161 2.11043 11.132C1.82629 10.8479 1.66666 10.4625 1.66666 10.0606C1.66666 9.65878 1.82629 9.2734 2.11043 8.98925C2.39458 8.70511 2.77996 8.54548 3.18181 8.54548H3.24999C3.50074 8.53961 3.74393 8.45844 3.94794 8.31253C4.15195 8.16661 4.30735 7.9627 4.39393 7.72729C4.49477 7.4988 4.52486 7.24533 4.4803 6.99957C4.43574 6.75382 4.31858 6.52705 4.14393 6.34851L4.09847 6.30305C3.9576 6.16233 3.84585 5.99523 3.7696 5.81129C3.69335 5.62736 3.6541 5.4302 3.6541 5.23108C3.6541 5.03197 3.69335 4.83481 3.7696 4.65087C3.84585 4.46693 3.9576 4.29983 4.09847 4.15911C4.23919 4.01824 4.4063 3.90648 4.59023 3.83023C4.77417 3.75398 4.97133 3.71474 5.17044 3.71474C5.36956 3.71474 5.56672 3.75398 5.75066 3.83023C5.93459 3.90648 6.1017 4.01824 6.24241 4.15911L6.28787 4.20457C6.46641 4.37922 6.69318 4.49637 6.93894 4.54093C7.18469 4.58549 7.43816 4.55541 7.66666 4.45457H7.72726C7.95133 4.35853 8.14243 4.19908 8.27703 3.99583C8.41163 3.79258 8.48387 3.5544 8.48484 3.31063V3.18184C8.48484 2.78 8.64447 2.39461 8.92862 2.11046C9.21276 1.82632 9.59815 1.66669 9.99999 1.66669C10.4018 1.66669 10.7872 1.82632 11.0714 2.11046C11.3555 2.39461 11.5151 2.78 11.5151 3.18184V3.25002C11.5161 3.4938 11.5883 3.73197 11.723 3.93522C11.8576 4.13847 12.0487 4.29793 12.2727 4.39396C12.5012 4.4948 12.7547 4.52489 13.0004 4.48033C13.2462 4.43577 13.473 4.31861 13.6515 4.14396L13.697 4.09851C13.8377 3.95763 14.0048 3.84588 14.1887 3.76963C14.3727 3.69338 14.5698 3.65413 14.7689 3.65413C14.968 3.65413 15.1652 3.69338 15.3491 3.76963C15.5331 3.84588 15.7002 3.95763 15.8409 4.09851C15.9818 4.23922 16.0935 4.40633 16.1698 4.59026C16.246 4.7742 16.2853 4.97136 16.2853 5.17048C16.2853 5.36959 16.246 5.56675 16.1698 5.75069C16.0935 5.93462 15.9818 6.10173 15.8409 6.24244L15.7954 6.2879C15.6208 6.46644 15.5036 6.69321 15.4591 6.93897C15.4145 7.18472 15.4446 7.43819 15.5454 7.66669V7.72729C15.6415 7.95136 15.8009 8.14246 16.0042 8.27706C16.2074 8.41166 16.4456 8.4839 16.6894 8.48487H16.8182C17.22 8.48487 17.6054 8.6445 17.8895 8.92865C18.1737 9.21279 18.3333 9.59818 18.3333 10C18.3333 10.4019 18.1737 10.7872 17.8895 11.0714C17.6054 11.3555 17.22 11.5152 16.8182 11.5152H16.75C16.5062 11.5161 16.268 11.5884 16.0648 11.723C15.8615 11.8576 15.7021 12.0487 15.6061 12.2727Z" stroke="#475467" stroke-width="1.66667" stroke-linecap="round" stroke-linejoin="round"/>
</g>
<defs>
<clipPath id="clip0_26_48396">
<rect width="20" height="20" fill="white"/>
</clipPath>
</defs>
</svg>
